{
  "accessors": [
    {
      "bufferView": 0,
      "componentType": 5125,
      "count": 3156,
      "type": "SCALAR"
    },
    {
      "bufferView": 1,
      "componentType": 5126,
      "count": 624,
      "max": [
        0.0969636514782906,
        60.8310012817383,
        78.1221771240234
      ],
      "min": [
        -0.0735504701733589,
        52.0280685424805,
        62.478832244873
      ],
      "type": "VEC3"
    },
    {
      "bufferView": 2,
      "componentType": 5126,
      "count": 624,
      "type": "VEC3"
    },
    {
      "bufferView": 3,
      "componentType": 5126,
      "count": 624,
      "type": "VEC4"
    },
    {
      "bufferView": 4,
      "componentType": 5126,
      "count": 624,
      "type": "VEC2"
    },
    {
      "bufferView": 5,
      "componentType": 5125,
      "count": 1848,
      "type": "SCALAR"
    },
    {
      "bufferView": 6,
      "componentType": 5126,
      "count": 659,
      "max": [
        0.119052059948444,
        57.0879287719727,
        65.7218704223633
      ],
      "min": [
        0.0821499228477478,
        55.7486457824707,
        63.869213104248
      ],
      "type": "VEC3"
    },
    {
      "bufferView": 7,
      "componentType": 5126,
      "count": 659,
      "type": "VEC3"
    },
    {
      "bufferView": 8,
      "componentType": 5126,
      "count": 659,
      "type": "VEC4"
    },
    {
      "bufferView": 9,
      "componentType": 5126,
      "count": 659,
      "type": "VEC2"
    },
    {
      "bufferView": 10,
      "componentType": 5125,
      "count": 5031,
      "type": "SCALAR"
    },
    {
      "bufferView": 11,
      "componentType": 5126,
      "count": 893,
      "max": [
        -0.0614928640425205,
        57.3634490966797,
        71.1683349609375
      ],
      "min": [
        -0.11871624737978,
        55.4784278869629,
        69.4274215698242
      ],
      "type": "VEC3"
    },
    {
      "bufferView": 12,
      "componentType": 5126,
      "count": 893,
      "type": "VEC3"
    },
    {
      "bufferView": 13,
      "componentType": 5126,
      "count": 893,
      "type": "VEC4"
    },
    {
      "bufferView": 14,
      "componentType": 5126,
      "count": 893,
      "type": "VEC2"
    }
  ],
  "asset": {
    "generator": "Adobe Substance 3D Painter 8.1.2",
    "version": "2.0"
  },
  "bufferViews": [
    {
      "buffer": 0,
      "byteLength": 12624,
      "target": 34963
    },
    {
      "buffer": 0,
      "byteLength": 7488,
      "byteOffset": 12624,
      "target": 34962
    },
    {
      "buffer": 0,
      "byteLength": 7488,
      "byteOffset": 20112,
      "target": 34962
    },
    {
      "buffer": 0,
      "byteLength": 9984,
      "byteOffset": 27600,
      "target": 34962
    },
    {
      "buffer": 0,
      "byteLength": 4992,
      "byteOffset": 37584,
      "target": 34962
    },
    {
      "buffer": 0,
      "byteLength": 7392,
      "byteOffset": 42576,
      "target": 34963
    },
    {
      "buffer": 0,
      "byteLength": 7908,
      "byteOffset": 49968,
      "target": 34962
    },
    {
      "buffer": 0,
      "byteLength": 7908,
      "byteOffset": 57876,
      "target": 34962
    },
    {
      "buffer": 0,
      "byteLength": 10544,
      "byteOffset": 65784,
      "target": 34962
    },
    {
      "buffer": 0,
      "byteLength": 5272,
      "byteOffset": 76328,
      "target": 34962
    },
    {
      "buffer": 0,
      "byteLength": 20124,
      "byteOffset": 81600,
      "target": 34963
    },
    {
      "buffer": 0,
      "byteLength": 10716,
      "byteOffset": 101724,
      "target": 34962
    },
    {
      "buffer": 0,
      "byteLength": 10716,
      "byteOffset": 112440,
      "target": 34962
    },
    {
      "buffer": 0,
      "byteLength": 14288,
      "byteOffset": 123156,
      "target": 34962
    },
    {
      "buffer": 0,
      "byteLength": 7144,
      "byteOffset": 137444,
      "target": 34962
    }
  ],
  "buffers": [
    {
      "byteLength": 144588,
      "uri": "GD_Card.bin"
    }
  ],
  "images": [
    {
      "uri": "Card_baseColor.png"
    },
    {
      "uri": "Card_occlusionRoughnessMetallic.png"
    },
    {
      "uri": "Card_normal.png"
    },
    {
      "uri": "Chip_baseColor.png"
    },
    {
      "uri": "Chip_occlusionRoughnessMetallic.png"
    },
    {
      "uri": "Chip_normal.png"
    },
    {
      "uri": "Logo_baseColor.png"
    },
    {
      "uri": "Logo_occlusionRoughnessMetallic.png"
    },
    {
      "uri": "Logo_normal.png"
    }
  ],
  "materials": [
    {
      "alphaMode": "OPAQUE",
      "name": "Card",
      "normalTexture": {
        "index": 2
      },
      "occlusionTexture": {
        "index": 1
      },
      "pbrMetallicRoughness": {
        "baseColorTexture": {
          "index": 0
        },
        "metallicRoughnessTexture": {
          "index": 1
        }
      }
    },
    {
      "alphaMode": "OPAQUE",
      "name": "Chip",
      "normalTexture": {
        "index": 5
      },
      "occlusionTexture": {
        "index": 4
      },
      "pbrMetallicRoughness": {
        "baseColorTexture": {
          "index": 3
        },
        "metallicRoughnessTexture": {
          "index": 4
        }
      }
    },
    {
      "alphaMode": "OPAQUE",
      "name": "Logo",
      "normalTexture": {
        "index": 8
      },
      "occlusionTexture": {
        "index": 7
      },
      "pbrMetallicRoughness": {
        "baseColorTexture": {
          "index": 6
        },
        "metallicRoughnessTexture": {
          "index": 7
        }
      }
    }
  ],
  "meshes": [
    {
      "name": "card",
      "primitives": [
        {
          "attributes": {
            "NORMAL": 2,
            "POSITION": 1,
            "TANGENT": 3,
            "TEXCOORD_0": 4
          },
          "indices": 0,
          "material": 0,
          "mode": 4
        }
      ]
    },
    {
      "name": "chip",
      "primitives": [
        {
          "attributes": {
            "NORMAL": 7,
            "POSITION": 6,
            "TANGENT": 8,
            "TEXCOORD_0": 9
          },
          "indices": 5,
          "material": 1,
          "mode": 4
        }
      ]
    },
    {
      "name": "logo",
      "primitives": [
        {
          "attributes": {
            "NORMAL": 12,
            "POSITION": 11,
            "TANGENT": 13,
            "TEXCOORD_0": 14
          },
          "indices": 10,
          "material": 2,
          "mode": 4
        }
      ]
    }
  ],
  "nodes": [
    {
      "children": [
        1
      ],
      "name": "RootNode"
    },
    {
      "children": [
        2,
        4,
        6
      ],
      "name": "group"
    },
    {
      "children": [
        3
      ],
      "name": "card"
    },
    {
      "mesh": 0,
      "name": "card"
    },
    {
      "children": [
        5
      ],
      "name": "chip"
    },
    {
      "mesh": 1,
      "name": "chip"
    },
    {
      "children": [
        7
      ],
      "name": "logo"
    },
    {
      "mesh": 2,
      "name": "logo"
    }
  ],
  "samplers": [
    {
      "magFilter": 9729,
      "minFilter": 9985,
      "wrapS": 10497,
      "wrapT": 10497
    }
  ],
  "scene": 0,
  "scenes": [
    {
      "name": "Scene",
      "nodes": [
        0
      ]
    }
  ],
  "textures": [
    {
      "sampler": 0,
      "source": 0
    },
    {
      "sampler": 0,
      "source": 1
    },
    {
      "sampler": 0,
      "source": 2
    },
    {
      "sampler": 0,
      "source": 3
    },
    {
      "sampler": 0,
      "source": 4
    },
    {
      "sampler": 0,
      "source": 5
    },
    {
      "sampler": 0,
      "source": 6
    },
    {
      "sampler": 0,
      "source": 7
    },
    {
      "sampler": 0,
      "source": 8
    }
  ]
}